<svg xmlns="http://www.w3.org/2000/svg" viewBox="0 0 32 32"><title>83-SD</title><g id="_83-SD" data-name="83-SD"><path d="M29,0H3A3,3,0,0,0,0,3V29a3,3,0,0,0,3,3H29a3,3,0,0,0,3-3V3A3,3,0,0,0,29,0Zm1,29a1,1,0,0,1-1,1H3a1,1,0,0,1-1-1V3A1,1,0,0,1,3,2H29a1,1,0,0,1,1,1Z"/><rect x="4" y="4" width="2" height="2"/><rect x="26" y="4" width="2" height="2"/><rect x="26" y="26" width="2" height="2"/><rect x="4" y="26" width="2" height="2"/><path d="M21,11H19a2,2,0,0,0-2,2v6a2,2,0,0,0,2,2h2a4,4,0,0,0,4-4V15A4,4,0,0,0,21,11Zm2,6a2,2,0,0,1-2,2H19V13h2a2,2,0,0,1,2,2Z"/><path d="M11,13h2a1,1,0,0,1,1,1h2a3,3,0,0,0-3-3H11a3,3,0,0,0,0,6h2a1,1,0,0,1,0,2H11a1,1,0,0,1-1-1H8a3,3,0,0,0,3,3h2a3,3,0,0,0,0-6H11a1,1,0,0,1,0-2Z"/></g></svg>